<svg width="24" height="25" viewBox="0 0 24 25" fill="none" xmlns="http://www.w3.org/2000/svg">
<path d="M13.4099 12.3828L19.7099 6.09281C19.8982 5.90451 20.004 5.64912 20.004 5.38281C20.004 5.11651 19.8982 4.86112 19.7099 4.67281C19.5216 4.48451 19.2662 4.37872 18.9999 4.37872C18.7336 4.37872 18.4782 4.48451 18.2899 4.67281L11.9999 10.9728L5.70994 4.67281C5.52164 4.48451 5.26624 4.37872 4.99994 4.37872C4.73364 4.37872 4.47824 4.48451 4.28994 4.67281C4.10164 4.86112 3.99585 5.11651 3.99585 5.38281C3.99585 5.64912 4.10164 5.90451 4.28994 6.09281L10.5899 12.3828L4.28994 18.6728C4.19621 18.7658 4.12182 18.8764 4.07105 18.9982C4.02028 19.1201 3.99414 19.2508 3.99414 19.3828C3.99414 19.5148 4.02028 19.6455 4.07105 19.7674C4.12182 19.8893 4.19621 19.9999 4.28994 20.0928C4.3829 20.1865 4.4935 20.2609 4.61536 20.3117C4.73722 20.3625 4.86793 20.3886 4.99994 20.3886C5.13195 20.3886 5.26266 20.3625 5.38452 20.3117C5.50638 20.2609 5.61698 20.1865 5.70994 20.0928L11.9999 13.7928L18.2899 20.0928C18.3829 20.1865 18.4935 20.2609 18.6154 20.3117C18.7372 20.3625 18.8679 20.3886 18.9999 20.3886C19.132 20.3886 19.2627 20.3625 19.3845 20.3117C19.5064 20.2609 19.617 20.1865 19.7099 20.0928C19.8037 19.9999 19.8781 19.8893 19.9288 19.7674C19.9796 19.6455 20.0057 19.5148 20.0057 19.3828C20.0057 19.2508 19.9796 19.1201 19.9288 18.9982C19.8781 18.8764 19.8037 18.7658 19.7099 18.6728L13.4099 12.3828Z" fill="#484848"/>
</svg>
