<svg width="46" height="46" viewBox="0 0 46 46" fill="none" xmlns="http://www.w3.org/2000/svg">
<g clip-path="url(#clip0_51_729)">
<path d="M21.3079 14.4365H10.7027C8.70942 14.4365 7.09364 16.052 7.09364 18.0456V39.7257C7.09364 42.9147 9.67851 45.5 12.8678 45.5H19.1428C22.3321 45.5 24.917 42.9148 24.917 39.7257V18.0456C24.917 16.052 23.3012 14.4365 21.3079 14.4365ZM16.0053 43.6328C15.5128 43.6328 15.114 43.2343 15.114 42.7419C15.114 42.2499 15.5128 41.8508 16.0053 41.8508C16.4975 41.8508 16.8963 42.2499 16.8963 42.7419C16.8963 43.2343 16.4975 43.6328 16.0053 43.6328ZM13.7137 15.7946H18.2963C18.5543 15.7946 18.7634 16.0037 18.7634 16.2617C18.7634 16.519 18.5543 16.7287 18.2963 16.7287H13.7137C13.4556 16.7287 13.2469 16.519 13.2469 16.2617C13.2469 16.0037 13.4557 15.7946 13.7137 15.7946ZM9.13077 39.7257V18.7649H22.8799V39.7257C22.8799 39.959 22.8558 40.1865 22.8148 40.4077H9.19555C9.15485 40.1865 9.13077 39.959 9.13077 39.7257Z" fill="#69B12B"/>
<path d="M24.7997 9.77448L24.1649 11.273C25.9843 12.0426 27.4304 13.5353 28.1514 15.3835L29.6671 14.7912C28.7853 12.5357 27.0278 10.7189 24.7997 9.77448Z" fill="#69B12B"/>
<path d="M25.2351 5.09784L24.7622 6.65482C28.6169 7.82473 31.6473 10.9121 32.7515 14.7962L34.3161 14.3513C33.0581 9.93209 29.6235 6.43307 25.2351 5.09784Z" fill="#69B12B"/>
<path d="M25.7062 0.5L25.3104 2.07852C31.2428 3.56492 35.9128 8.28992 37.3233 14.2522L38.9064 13.8773C37.3516 7.31891 32.2322 2.1389 25.7062 0.5Z" fill="#69B12B"/>
</g>
<defs>
<clipPath id="clip0_51_729">
<rect width="45" height="45" fill="white" transform="translate(0.5 0.5)"/>
</clipPath>
</defs>
</svg>
