<svg width="72" height="72" viewBox="0 0 72 72" fill="none" xmlns="http://www.w3.org/2000/svg">
<g id="concrete 1">
<g id="Group">
<path id="Vector" d="M67.275 39.8249C67.275 39.5999 67.275 39.5999 67.275 39.8249C67.05 39.5999 67.05 39.3749 67.05 39.3749L58.05 25.8749C57.6 25.1999 56.925 24.7499 56.25 24.7499H45C43.65 24.7499 42.75 25.6499 42.75 26.9999V45.8999C40.95 46.5749 39.375 47.9249 38.25 49.4999H33.75V43.8749C33.975 43.6499 33.975 43.4249 34.2 43.1999L40.275 28.1249C40.5 27.4499 40.5 26.5499 40.05 25.8749C37.125 21.8249 32.4 18.2249 26.775 15.9749C24.75 15.2999 22.725 14.8499 20.925 14.3999L9 43.1999V47.2499C6.3 49.2749 4.5 52.4249 4.5 56.2499C4.5 62.5499 9.45 67.4999 15.75 67.4999C22.05 67.4999 27 62.5499 27 56.2499C27 55.5749 27 54.6749 26.775 53.9999H36.225C36 54.6749 36 55.5749 36 56.2499C36 62.5499 40.95 67.4999 47.25 67.4999C53.55 67.4999 58.5 62.5499 58.5 56.2499H65.25C66.6 56.2499 67.5 55.3499 67.5 53.9999V40.4999C67.5 40.2749 67.5 40.0499 67.275 39.8249ZM15.75 62.9999C11.925 62.9999 9 60.0749 9 56.2499C9 52.4249 11.925 49.4999 15.75 49.4999C19.575 49.4999 22.5 52.4249 22.5 56.2499C22.5 60.0749 19.575 62.9999 15.75 62.9999ZM47.25 29.2499H55.125L61.2 38.2499H59.175C56.925 38.2499 54.9 36.8999 54 35.0999C53.325 34.1999 52.65 33.7499 51.75 33.7499H47.25V29.2499ZM47.25 62.9999C43.425 62.9999 40.5 60.0749 40.5 56.2499C40.5 52.4249 43.425 49.4999 47.25 49.4999C51.075 49.4999 54 52.4249 54 56.2499C54 60.0749 51.075 62.9999 47.25 62.9999Z" fill="#69B12B"/>
<path id="Vector_2" d="M6.75 36.8999L16.2 13.7249C14.175 13.4999 12.15 13.4999 10.35 13.9499C9.45 13.9499 8.775 14.6249 8.55 15.2999L2.475 30.3749C2.25 31.0499 2.25 31.9499 2.7 32.6249C3.825 34.1999 5.175 35.5499 6.75 36.8999Z" fill="#69B12B"/>
</g>
</g>
</svg>
