<svg width="50" height="50" viewBox="0 0 50 50" fill="none" xmlns="http://www.w3.org/2000/svg">
<g id="dollar-sign 1" clip-path="url(#clip0_51_735)">
<g id="Group">
<g id="Group_2">
<path id="Vector" d="M25 49.9993C11.2158 49.9993 0 38.7853 0 25.0002C0 11.2151 11.2158 0.00109863 25 0.00109863C38.7842 0.00109863 50 11.216 50 25.0002C50 38.7844 38.7851 49.9993 25 49.9993ZM25 6.44274C14.767 6.44274 6.44164 14.7681 6.44164 25.0002C6.44164 35.2332 14.767 43.5585 25 43.5585C35.233 43.5585 43.5584 35.2332 43.5584 25.0002C43.5584 14.7681 35.233 6.44274 25 6.44274Z" fill="#69B12B"/>
</g>
<g id="Group_3">
<path id="Vector_2" d="M27.2168 11.2315C27.2168 11.2315 27.2168 11.3447 27.2168 11.4836C27.2168 11.6226 28.0359 11.8443 29.0196 12.1011C30.2518 12.4222 31.3892 12.8768 32.4438 13.4658C33.1284 13.8624 33.7413 14.5471 33.7413 15.6283C33.7413 16.9986 32.66 18.044 31.2898 18.044C30.8573 18.044 30.4257 17.9354 30.0291 17.7191C29.5404 17.4578 29.0527 17.2213 28.5687 17.0188C27.7432 16.6728 27.0365 17.317 27.0365 18.3338V20.132C27.0365 21.1488 27.8371 22.1767 28.7969 22.5117C33.0217 23.9859 34.8585 26.1475 34.8585 29.7217C34.8585 33.1965 32.5625 35.6029 29.0269 36.5278C28.0432 36.7854 27.2178 37.286 27.2178 37.8143V38.7695C27.2178 39.8149 26.3886 40.6431 25.3433 40.6431C24.2979 40.6431 23.4697 39.8149 23.4697 38.7695C23.4697 38.7695 23.4697 38.3333 23.4697 37.7959C23.4697 37.2584 22.6479 36.7284 21.6596 36.4928C19.7712 36.0437 17.9869 35.2864 16.3682 34.299C15.6118 33.8306 15.1425 33.11 15.1425 32.1364C15.1425 30.7303 16.2247 29.6849 17.6298 29.6849C18.0982 29.6849 18.6035 29.8653 19.035 30.1542C19.9912 30.768 20.9178 31.2677 21.8887 31.6432C22.8365 32.0103 23.6482 31.3487 23.6482 30.3318V28.2806C23.6482 27.2638 22.8494 26.2359 21.8878 25.9046C17.8783 24.5242 15.8989 22.5356 15.8989 18.7627C15.8989 15.3514 18.1397 12.9008 21.6586 11.9842C22.6424 11.7284 23.4687 11.5646 23.4687 11.445V11.2287C23.4687 10.1833 24.2969 9.35419 25.3423 9.35419C26.3877 9.35419 27.2168 10.1861 27.2168 11.2315ZM23.6482 19.1952V18.0099C23.6482 16.993 22.7491 16.1869 21.943 16.8062C21.4083 17.2167 21.1617 17.7808 21.1617 18.4406C21.1617 19.1464 21.3632 19.7087 22.0111 20.2083C22.8163 20.8295 23.6482 20.212 23.6482 19.1952ZM27.0365 29.1843V30.5131C27.0365 31.53 27.9291 32.3315 28.7527 31.7361C29.3122 31.3312 29.5957 30.7533 29.5957 30.0107C29.5957 29.2588 29.3509 28.6653 28.6782 28.1573C27.8675 27.5445 27.0365 28.1675 27.0365 29.1843Z" fill="#69B12B"/>
</g>
</g>
</g>
<defs>
<clipPath id="clip0_51_735">
<rect width="50" height="50" fill="white"/>
</clipPath>
</defs>
</svg>
