<svg width="60" height="60" viewBox="0 0 60 60" fill="none" xmlns="http://www.w3.org/2000/svg">
<g id="handshake 1" clip-path="url(#clip0_51_724)">
<g id="Group">
<path id="Vector" d="M38.0517 20.4605C36.5772 20.2153 33.1831 20.1884 30.3253 20.8111C30.1423 20.6902 29.9588 20.5651 29.7778 20.4539C29.2254 20.1156 28.6836 19.8295 28.1455 19.6139C27.6238 19.4064 27.1036 19.2634 26.5594 19.2347V19.2324C25.7442 19.1661 24.9529 19.1367 24.2253 19.1367C23.1175 19.1384 22.1725 19.1997 21.4722 19.3165H21.475C21.3782 19.3313 21.272 19.3403 21.1567 19.3403C20.5515 19.3476 19.7139 19.06 18.9539 18.6448C18.4416 18.3702 17.8067 18.5156 17.4651 18.9864L9.12423 30.4888C8.84017 30.8802 8.82998 31.4106 9.09763 31.8143C9.30927 32.1314 9.48623 32.4606 9.60306 32.79C9.77099 33.255 10.0142 33.6775 10.2948 34.0886C10.5758 34.4979 10.8967 34.8951 11.2316 35.2743L11.3629 35.4C11.3629 35.4 11.9635 35.8953 12.9204 36.683C12.6707 37.041 12.5335 37.4659 12.5285 37.9137C12.5224 38.5037 12.7459 39.0627 13.1595 39.4852C13.5795 39.9142 14.1409 40.1503 14.7411 40.1503C15.1616 40.1503 15.5636 40.0294 15.9137 39.8079C15.6797 40.1609 15.5497 40.572 15.5448 41.0043C15.5383 41.5943 15.7626 42.1525 16.1756 42.5741C16.5948 43.004 17.1567 43.2401 17.7573 43.2401C18.2291 43.2401 18.6757 43.0865 19.0525 42.8119C18.3669 43.6716 18.4041 44.9258 19.1922 45.7324C19.6115 46.1606 20.1728 46.3968 20.7726 46.3968C21.3544 46.3968 21.9048 46.1721 22.3232 45.7627L22.7322 45.3565C22.561 45.6703 22.4588 46.0184 22.4547 46.3854C22.4486 46.9761 22.672 47.5343 23.0855 47.9568C23.5051 48.385 24.0669 48.6211 24.6672 48.6211C25.2485 48.6211 25.798 48.3973 26.2201 47.9854L26.469 47.7328C26.5936 47.8309 26.7073 47.9192 26.8 47.9911C26.8759 48.0483 26.9406 48.0974 26.9998 48.1399L27.0877 48.202L27.2122 48.2789C27.6801 48.5354 28.1275 48.6467 28.4833 48.7251C28.6606 48.7618 28.8126 48.7872 28.9253 48.8026L29.0626 48.8207L29.1055 48.8248L29.1218 48.8264L29.132 48.8281L29.143 48.8289L29.1578 48.8297C29.1713 48.8297 29.1647 48.8313 29.2357 48.833L29.3195 48.8297C30.0988 48.7725 30.8366 48.5044 31.4422 48.042C31.6832 47.8573 31.8941 47.6342 32.0829 47.3899C32.4559 47.5109 32.851 47.5827 33.262 47.5827C34.9294 47.582 36.3326 46.5188 36.876 45.0397C36.9365 45.0356 36.9966 45.0332 37.0561 45.0177C37.2678 45.0561 37.4823 45.0839 37.7045 45.0839C39.359 45.0823 40.7591 44.0397 41.3115 42.5801C41.3153 42.5768 41.3189 42.5753 41.3226 42.5727L41.4524 42.585C43.5897 42.585 45.3197 40.8533 45.3205 38.7174C45.3218 38.124 45.2397 37.4679 45.0137 36.7855C46.4806 35.4895 48.6301 33.4874 49.0187 32.4006C49.2059 31.8776 50.258 30.6233 50.5636 30.1958L42.2877 18.7825C41.2322 19.3801 39.1839 20.6501 38.0517 20.4605ZM42.9988 38.7169C42.9976 39.5708 42.3067 40.2621 41.4526 40.2638C41.241 40.2638 41.0433 40.2213 40.8591 40.1445C40.8407 40.1363 40.8215 40.1346 40.8031 40.1289L39.3689 38.3842C39.0061 37.9642 38.3707 37.9169 37.9503 38.2795C37.5294 38.6424 37.4829 39.2782 37.8461 39.699L39.2332 41.3897C39.1445 42.1587 38.4982 42.7609 37.7046 42.7617C37.3279 42.7609 36.9938 42.627 36.7204 42.4022L35.3439 40.7236C34.9806 40.3036 34.3452 40.2571 33.9249 40.6199C33.5039 40.9827 33.4577 41.6186 33.8206 42.0385L34.7795 43.2333C34.7779 43.3076 34.7706 43.382 34.7836 43.4564C34.8004 43.5504 34.8081 43.6352 34.8081 43.7138C34.8069 44.5685 34.1156 45.259 33.262 45.2606C33.0389 45.2606 32.8335 45.2092 32.6439 45.1259L30.9662 43.3624C30.5613 42.9816 29.9248 43.0013 29.5439 43.4065C29.1627 43.811 29.1824 44.4484 29.5868 44.8283L30.3741 45.7518C30.2952 45.921 30.1902 46.0738 30.0305 46.1979C29.8258 46.3548 29.5443 46.4626 29.224 46.4986C29.1305 46.4848 29.0033 46.4635 28.8522 46.4276C28.6647 46.3852 28.4669 46.3157 28.3643 46.2617C28.3288 46.2356 28.2381 46.1686 28.107 46.0655C28.0326 46.0083 27.9481 45.943 27.8541 45.8678C28.024 45.1536 27.841 44.3707 27.2898 43.8069C26.8702 43.3779 26.3084 43.1418 25.7081 43.1418C25.3706 43.1418 25.0471 43.2251 24.7495 43.3698L24.7406 43.3624L24.7508 43.351C25.1729 42.9375 25.4091 42.3851 25.4155 41.7935C25.4216 41.2027 25.1973 40.6445 24.7839 40.2229C24.3646 39.7947 23.8026 39.5577 23.2027 39.5577C22.7336 39.5577 22.2891 39.7096 21.914 39.981C22.2175 39.5985 22.3937 39.1343 22.399 38.6384C22.4056 38.0475 22.1813 37.4894 21.7681 37.0677C21.3485 36.6379 20.7867 36.4017 20.1865 36.4017C19.6051 36.4017 19.0555 36.6257 18.6372 37.0358L18.2642 37.4068C18.7242 36.5733 18.6181 35.5061 17.9193 34.7919C17.4993 34.3629 16.9375 34.1268 16.3372 34.1268C15.7559 34.1268 15.2063 34.3506 14.7871 34.7609L14.5403 35.0085C14.365 34.8638 14.1929 34.7224 14.041 34.5974C13.4698 34.1283 13.0763 33.8031 12.9182 33.6723C12.651 33.3675 12.4037 33.0611 12.2105 32.7768C12.0029 32.4761 11.8559 32.1974 11.7897 32.0086C11.6924 31.7357 11.5764 31.4792 11.4502 31.2356L18.7826 21.1248C19.5075 21.428 20.3005 21.6559 21.1566 21.6618C21.3845 21.6618 21.6178 21.6454 21.8543 21.6062H21.8572C22.3454 21.5229 23.2157 21.4574 24.225 21.4592C24.8906 21.4575 25.6228 21.4853 26.3713 21.5458L26.4224 21.549C26.6063 21.554 26.9124 21.6194 27.2841 21.7697L27.3682 21.8081C24.236 23.2226 19.7972 25.9439 18.3385 26.4308C16.6726 26.9857 16.5333 29.2076 20.2813 29.6235C24.03 30.041 27.3617 27.6795 28.1944 27.2644C28.7922 26.9653 32.5899 27.3306 34.6934 27.561C35.6209 28.477 36.434 29.3269 37.0268 29.9692L41.6467 35.6174L41.6671 35.6404C42.2591 36.3259 42.5803 36.8823 42.7626 37.3596C42.9429 37.8368 42.9976 38.2486 42.9988 38.7169Z" fill="#69B12B"/>
<path id="Vector_2" d="M59.8407 26.9088L48.6766 11.5116C48.4065 11.1381 47.886 11.0565 47.5133 11.3261L42.5682 14.9119C42.1956 15.1816 42.1126 15.703 42.3831 16.0756L53.5473 31.4728C53.8173 31.8454 54.3378 31.9287 54.7105 31.6591L59.6564 28.0726C60.0283 27.8019 60.1117 27.2813 59.8407 26.9088ZM56.0421 28.2922C55.4218 28.7416 54.5532 28.6027 54.1029 27.9824C53.653 27.3623 53.7916 26.4944 54.4126 26.0442C55.0332 25.5939 55.9011 25.7328 56.3513 26.3521C56.8012 26.9732 56.6627 27.8419 56.0421 28.2922Z" fill="#69B12B"/>
<path id="Vector_3" d="M17.4324 14.9119L12.4864 11.3261C12.1146 11.0564 11.5937 11.1381 11.3232 11.5116L0.158647 26.9088C-0.111822 27.2815 -0.0276812 27.802 0.344155 28.0725L5.28923 31.659C5.66189 31.9287 6.18232 31.8454 6.45197 31.4727L17.6167 16.0755C17.8871 15.7029 17.8042 15.1815 17.4324 14.9119ZM14.1274 16.6313C13.6775 17.2515 12.8093 17.3904 12.1886 16.9402C11.5676 16.4907 11.4292 15.6212 11.8793 15.0019C12.329 14.3808 13.1974 14.2419 13.818 14.6923C14.4395 15.1424 14.5768 16.0102 14.1274 16.6313Z" fill="#69B12B"/>
</g>
</g>
<defs>
<clipPath id="clip0_51_724">
<rect width="60" height="60" fill="white"/>
</clipPath>
</defs>
</svg>
