<svg width="72" height="72" viewBox="0 0 72 72" fill="none" xmlns="http://www.w3.org/2000/svg">
<g id="home 1" clip-path="url(#clip0_6_308)">
<g id="Group">
<g id="Group_2">
<g id="Group_3">
<path id="Vector" d="M70.7915 32.7757L59.8796 21.8638V9.25862C59.8796 6.97943 58.0326 5.13233 55.7501 5.13233C53.4728 5.13233 51.6258 6.97943 51.6258 9.25862V13.6102L43.501 5.48507C39.484 1.47026 32.4998 1.47738 28.492 5.49234L1.20804 32.7757C-0.402597 34.3895 -0.402597 37.0008 1.20804 38.6122C2.81939 40.2256 5.43576 40.2256 7.04654 38.6122L34.3279 11.3281C35.2166 10.444 36.7831 10.444 37.6672 11.3255L64.9531 38.6122C65.7622 39.4189 66.8171 39.8202 67.8717 39.8202C68.9284 39.8202 69.985 39.4185 70.7917 38.6122C72.4029 37.001 72.4029 34.3897 70.7915 32.7757Z" fill="#69B12B"/>
<path id="Vector_2" d="M37.4333 19.1607C36.6406 18.3685 35.3571 18.3685 34.5668 19.1607L10.5678 43.1526C10.1889 43.5314 9.97406 44.0485 9.97406 44.5881V62.0869C9.97406 66.1931 13.3035 69.5224 17.4095 69.5224H29.2915V51.1212H42.706V69.5224H54.5881C58.694 69.5224 62.0234 66.1931 62.0234 62.0871V44.5881C62.0234 44.0485 61.8105 43.5314 61.4297 43.1526L37.4333 19.1607Z" fill="#69B12B"/>
</g>
</g>
</g>
</g>
<defs>
<clipPath id="clip0_6_308">
<rect width="72" height="72" fill="white"/>
</clipPath>
</defs>
</svg>
