<svg width="72" height="72" viewBox="0 0 72 72" fill="none" xmlns="http://www.w3.org/2000/svg">
<g id="shingle 1" clip-path="url(#clip0_6_322)">
<g id="Group">
<g id="Group_2">
<path id="Vector" d="M34.7145 4.64095C34.6028 4.03359 34.0202 3.63238 33.4128 3.74333C29.2581 4.50693 26.829 6.99811 24.8773 8.99991C22.8462 11.0831 21.5047 12.4593 18.5586 12.4593C15.6126 12.4593 14.2709 11.0833 12.2397 8.99991C9.98325 6.6855 6.89259 3.51538 1.11796 3.51538C0.50047 3.51538 -1.52588e-05 4.01601 -1.52588e-05 4.63335V19.0062C-1.52588e-05 19.6237 0.500611 20.1242 1.11796 20.1242C1.7353 20.1242 2.23593 19.6236 2.23593 19.0062V5.79928C6.34697 6.15942 8.61722 8.48747 10.6391 10.5614C12.4895 12.4591 14.1252 14.1344 16.9938 14.5792V46.4349C16.9938 47.0524 17.4945 47.5529 18.1118 47.5529C18.7292 47.5529 19.2298 47.0523 19.2298 46.4349V14.6751C22.6699 14.4666 24.4439 12.6477 26.4785 10.561C28.2989 8.69377 30.3622 6.5775 33.817 5.94271C34.4242 5.83106 34.8261 5.24831 34.7145 4.64095Z" fill="#69B12B"/>
</g>
</g>
<g id="Group_3">
<g id="Group_4">
<path id="Vector_2" d="M70.8822 3.51538C65.1077 3.51538 62.0169 6.68536 59.7598 9.00019C57.7288 11.0833 56.3868 12.4594 53.4408 12.4594C50.4946 12.4594 49.1529 11.0833 47.1215 8.99991C45.1701 6.99853 42.7414 4.50763 38.5876 3.74376C37.9802 3.63266 37.3976 4.03401 37.2858 4.64109C37.1741 5.24845 37.5759 5.8312 38.1831 5.94285C41.6372 6.57792 43.7003 8.69391 45.5207 10.5608C47.5557 12.6479 49.3299 14.4666 52.7705 14.675V28.5465C52.7705 29.164 53.2711 29.6645 53.8884 29.6645C54.5058 29.6645 55.0064 29.1639 55.0064 28.5465V14.5789C57.8747 14.134 59.5105 12.4587 61.3611 10.5607C63.3829 8.48719 65.6532 6.15914 69.7643 5.79899V52.8746C64.7006 53.2522 61.8667 56.1568 59.7604 58.3171L59.7601 58.3173C58.1274 59.9916 56.9396 61.2087 55.0065 61.622V34.5095C55.0065 33.892 54.5059 33.3915 53.8886 33.3915C53.2712 33.3915 52.7706 33.8921 52.7706 34.5095V61.7503C50.2789 61.5533 48.992 60.2355 47.1218 58.3173C44.8649 56.0028 41.7741 52.8328 35.9996 52.8328C30.2251 52.8328 27.1345 56.0029 24.8777 58.3175C23.008 60.2353 21.7212 61.5531 19.2301 61.7503V52.3977C19.2301 51.7802 18.7294 51.2797 18.1121 51.2797C17.4946 51.2797 16.9941 51.7804 16.9941 52.3977V61.6222C15.061 61.209 13.8731 59.9919 12.2402 58.3172C10.1337 56.1569 7.29998 53.2522 2.23621 52.8747V26.1615C2.23621 25.5441 1.73558 25.0436 1.11824 25.0436C0.500892 25.0436 -1.52588e-05 25.5442 -1.52588e-05 26.1615V58.4225C-1.52588e-05 59.04 0.500611 59.5405 1.11796 59.5405C4.06391 59.5405 5.40562 60.9165 7.43681 62.9999C9.69357 65.3144 12.7842 68.4845 18.5587 68.4845C24.3332 68.4845 27.4239 65.3144 29.6806 62.9999C31.7117 60.9167 33.0533 59.5405 35.9994 59.5405C38.9455 59.5405 40.2873 60.9167 42.3186 63C44.5754 65.3146 47.6662 68.4845 53.4407 68.4845C59.2153 68.4845 62.3061 65.3146 64.5629 63C66.5941 60.9168 67.9359 59.5405 70.882 59.5405C71.4995 59.5405 72 59.0399 72 58.4225V4.63335C72.0001 4.01601 71.4995 3.51538 70.8822 3.51538ZM69.764 57.3615C66.6129 57.6944 64.9069 59.4444 62.9619 61.4392C60.7637 63.6936 58.2724 66.2487 53.4407 66.2487C48.6089 66.2487 46.1176 63.6936 43.9192 61.4389C41.7563 59.2204 39.8881 57.3047 35.9992 57.3047C32.1105 57.3047 30.2423 59.2207 28.0795 61.4391C25.8815 63.6936 23.3902 66.2487 18.5586 66.2487C13.7268 66.2487 11.2355 63.6936 9.03741 61.4388C7.09284 59.4445 5.38621 57.6945 2.23579 57.3616V55.1166C6.34683 55.4767 8.61694 57.8048 10.639 59.8787C12.8019 62.0969 14.67 64.0128 18.5586 64.0128C22.4473 64.0128 24.3155 62.0968 26.4783 59.8784C28.6763 57.6239 31.1676 55.0688 35.9992 55.0688C40.831 55.0688 43.3224 57.6239 45.5204 59.8783C47.6835 62.0969 49.5517 64.0128 53.4405 64.0128C57.3294 64.0128 59.1976 62.0968 61.3606 59.8786L61.3608 59.8784C63.3826 57.8049 65.6529 55.4768 69.764 55.1167V57.3615Z" fill="#69B12B"/>
</g>
</g>
</g>
<defs>
<clipPath id="clip0_6_322">
<rect width="72" height="72" fill="white"/>
</clipPath>
</defs>
</svg>
