<svg width="72" height="72" viewBox="0 0 72 72" fill="none" xmlns="http://www.w3.org/2000/svg">
<g id="window 1">
<g id="Group">
<path id="Vector" d="M39.6194 17.2941C39.6194 20.8433 42.5067 23.7309 46.0557 23.7309C49.6048 23.7309 52.4922 20.8435 52.4922 17.2941C52.4922 13.7451 49.6048 10.8577 46.0557 10.8577C42.5067 10.8578 39.6194 13.7451 39.6194 17.2941ZM51.224 17.2941C51.224 20.144 48.9055 22.4626 46.0557 22.4626C43.206 22.4626 40.8877 20.144 40.8877 17.2941C40.8877 14.4442 43.206 12.1259 46.0557 12.1259C48.9055 12.1261 51.224 14.4444 51.224 17.2941Z" fill="#69B12B"/>
<path id="Vector_2" d="M64.8186 38.3906L59.3518 33.2076V0.634119C59.3518 0.283787 59.068 0 58.7176 0H6.79446C6.44428 0 6.16034 0.283787 6.16034 0.634119V47.1859C6.16034 47.5363 6.44428 47.8201 6.79446 47.8201H37.5003V68.0355C37.5003 70.2215 39.2788 71.9999 41.465 71.9999C43.651 71.9999 45.4293 70.2215 45.4293 68.0355V51.7259C45.8596 51.7641 46.2526 51.764 46.6821 51.7261V68.0355C46.6821 70.2215 48.4604 71.9999 50.6464 71.9999C52.8326 71.9999 54.6111 70.2215 54.6111 68.0355L54.6112 47.8201H58.7176C59.068 47.8201 59.3518 47.5363 59.3518 47.1859V42.1907L60.328 43.1398C60.9585 43.736 61.7659 44.0315 62.5719 44.0315C63.4397 44.0315 64.306 43.6887 64.948 43.0098C66.1858 41.7003 66.1273 39.628 64.8186 38.3906ZM58.0835 32.0051L53.1811 27.3571C53.1686 27.3452 53.1541 27.3367 53.1408 27.3261C51.354 25.4465 48.3 24.2348 46.0557 24.2348C44.4835 24.2348 42.5133 24.8293 40.8599 25.8312L33.0919 18.3092V1.26824H58.0837V32.0051H58.0835ZM37.5846 29.7935L26.5435 19.301C25.7421 18.5433 25.7064 17.2751 26.4638 16.4738C26.8308 16.0854 27.3271 15.8634 27.8609 15.8485C28.3973 15.8327 28.9027 16.0271 29.2853 16.3889L39.7994 26.5697C38.6822 27.4612 37.8412 28.5627 37.5846 29.7935ZM7.42858 1.26824H31.8235V17.0812L30.1621 15.4725C29.5279 14.8726 28.6978 14.5568 27.8254 14.5804C27.1554 14.5994 26.5226 14.8193 25.9929 15.2071L22.4933 11.6015L29.4072 5.07594C29.5295 4.9606 29.601 4.8011 29.6057 4.63295C29.6107 4.46495 29.5485 4.30172 29.433 4.17952L27.3847 2.00979C27.1443 1.75524 26.743 1.74331 26.4884 1.98382L11.7319 15.9119C11.6096 16.0273 11.5381 16.1868 11.5333 16.3548C11.5284 16.5229 11.5906 16.6861 11.706 16.8083L13.7543 18.9784C13.879 19.1106 14.0471 19.1773 14.2156 19.1773C14.3717 19.1773 14.5282 19.12 14.6507 19.0043L21.5711 12.4725L25.1313 16.1404C24.3409 17.4296 24.5306 19.1431 25.6712 20.2215L31.827 26.0716C31.8264 26.0826 31.8237 26.093 31.8237 26.1042V46.5518H7.42873V1.26824H7.42858ZM14.2413 17.6466L13.0634 16.3989L26.8977 3.34129L28.0755 4.58894L14.2413 17.6466ZM33.0918 46.5518V27.2734L37.5003 31.4629V46.5518H33.0918ZM51.6028 70.5533V54.6296C51.6028 54.2793 51.319 53.9955 50.9687 53.9955C50.6184 53.9955 50.3346 54.2793 50.3346 54.6296V70.7121C48.9946 70.5567 47.9504 69.4165 47.9504 68.0355V51.0017C47.9504 50.814 47.8673 50.6361 47.7235 50.5156C47.6085 50.4192 47.464 50.3676 47.3163 50.3676C47.2793 50.3676 47.2422 50.3709 47.2053 50.3774C46.7984 50.4498 46.4117 50.4865 46.056 50.4865C45.7009 50.4865 45.314 50.4498 44.9062 50.3774C44.7215 50.3443 44.5317 50.3953 44.388 50.5159C44.2442 50.6363 44.1611 50.8143 44.1611 51.0018V68.0356C44.1611 69.4323 43.0935 70.5839 41.7316 70.7183V61.4477C41.7316 61.0973 41.4478 60.8135 41.0975 60.8135C40.7472 60.8135 40.4634 61.0973 40.4634 61.4477V70.5369C39.4715 70.1382 38.7685 69.1684 38.7685 68.0358V30.5746C38.7685 27.824 43.2445 25.5032 46.0557 25.5032C48.8669 25.5032 53.343 27.8241 53.343 30.5746L53.3431 68.0355C53.3431 69.1853 52.6183 70.1664 51.6028 70.5533ZM58.0835 46.5518H54.6112V37.5821L58.0835 40.9578V46.5518ZM64.0263 42.1385C63.2687 42.94 62.0003 42.9755 61.2058 42.2244L54.6112 35.8133V30.5746C54.6112 30.4934 54.6056 30.4133 54.6005 30.3331L63.9467 39.3115C64.748 40.0692 64.7839 41.3373 64.0263 42.1385Z" fill="#69B12B"/>
<path id="Vector_3" d="M22.1618 21.5774L11.2699 32.4693C11.0222 32.7168 11.0222 33.1185 11.2699 33.366C11.3937 33.4899 11.556 33.5518 11.7182 33.5518C11.8806 33.5518 12.0427 33.4899 12.1666 33.366L23.0585 22.4741C23.3062 22.2266 23.3062 21.8249 23.0585 21.5774C22.8108 21.3297 22.4095 21.3297 22.1618 21.5774Z" fill="#69B12B"/>
<path id="Vector_4" d="M21.4158 30.8281L10.5238 41.72C10.2762 41.9676 10.2762 42.3692 10.5238 42.6167C10.6477 42.7406 10.81 42.8025 10.9722 42.8025C11.1345 42.8025 11.2967 42.7406 11.4206 42.6167L22.3125 31.7248C22.5602 31.4773 22.5602 31.0756 22.3125 30.8281C22.0648 30.5804 21.6634 30.5804 21.4158 30.8281Z" fill="#69B12B"/>
<path id="Vector_5" d="M37.1568 11.8059C37.2805 11.9298 37.4429 11.9917 37.6052 11.9917C37.7675 11.9917 37.9299 11.9298 38.0535 11.8059L46.1852 3.67428C46.4329 3.42675 46.4329 3.02509 46.1852 2.77756C45.9378 2.52988 45.5359 2.52988 45.2885 2.77756L37.1568 10.9092C36.9091 11.1567 36.9091 11.5584 37.1568 11.8059Z" fill="#69B12B"/>
</g>
</g>
</svg>
